<svg width="11" height="11" viewBox="0 0 11 11" fill="none" xmlns="http://www.w3.org/2000/svg">
<path fill-rule="evenodd" clip-rule="evenodd" d="M6.95286 7.1599C6.27551 7.68645 5.42437 8 4.5 8C2.29086 8 0.5 6.20914 0.5 4C0.5 1.79086 2.29086 0 4.5 0C6.70914 0 8.5 1.79086 8.5 4C8.5 4.92434 8.18647 5.77545 7.65996 6.45279L10.8536 9.6464L10.1465 10.3535L6.95286 7.1599ZM7.5 4C7.5 5.65685 6.15685 7 4.5 7C2.84315 7 1.5 5.65685 1.5 4C1.5 2.34315 2.84315 1 4.5 1C6.15685 1 7.5 2.34315 7.5 4Z" fill="black"/>
</svg>
